<svg version="1.2" xmlns="http://www.w3.org/2000/svg" viewBox="0 0 448 512" width="448" height="512"><style></style><path fill-rule="evenodd" d="m448 274.3v109.9c0 32-11.9 62.1-33.3 84.7-19.3 21-44.6 35-73.2 40.5-5.3 1.6-11.8 2.6-18.1 2.6h-109.7c-47.5 0-93-22.7-121.6-60.9l-78.1-104.2c-9.2-12.1-14-26.7-14-41.7 0-32.6 25.5-69.8 69.8-69.8 5.4 0 15-0.3 26.2 5.1v-168.5c0-39.7 32.2-72 71.9-72 39.7 0 72.1 32.3 72.1 72v88h11.4c16 0 31.3 5.1 43.8 14.6q5.5-0.8 11.1-0.9h13.7c22.1 0 43.2 10.4 56.9 27.5 39.4 1.1 71.1 33.4 71.1 73.1zm-48 0c0-13.9-11.3-25.2-25.2-25.2l-14 0.1c-23.4 0-13.9-27.5-40.8-27.5h-13.7c-10.4 0-12.1 5.5-20.2 5.5-16.1 0-13.2-19.2-34.7-19.2h-13.7c-17.6 0-18.2 10.7-30.6 10.7-10.5 0-16-9.1-16-16v-130.7c0-13.2-10.8-24-24-24-12.3 0-23.1 10.8-23.1 24v248.1c0 5.3-4.1 16-16 16-4.9 0-9.7-2.3-12.8-6.4l-28.1-37.5c-5.3-7.2-12.9-8.8-17.4-8.8-7.2 0-21.7 5.5-21.7 21.8 0 4.6 1.5 9.2 4.4 13l78.1 104.2c19.5 26 50.6 41.6 83.2 41.6h109.7c1.9 0 4-0.4 6.5-1.2 20.6-3.9 37.1-12.9 49.7-26.5 13.2-14 20.4-32.5 20.4-52.1 0 0 0-109.9 0-109.9zm-176 29.7v96c0 8.8-7.2 16-16 16-8.8 0-16-7.2-16-16v-96c0-8.8 7.2-16 16-16 8.8 0 16 7.2 16 16zm64 0v96c0 8.8-9 16-16.9 16-7.9 0-15.1-7.2-15.1-16v-96c0-8.8 7.2-16 16-16 8.8 0 15.1 7.2 16 16zm64 0v96c0 8.8-7.2 16-16 16-8.8 0-16-7.2-16-16v-96c0-8.8 7.2-16 16-16 8.8 0 16 7.2 16 16z"/></svg>